<svg width="180" xmlns="http://www.w3.org/2000/svg" height="180" id="screenshot-5a170a0c-63e7-80db-8007-f2983ff958ca" viewBox="0 0 180 180" xmlns:xlink="http://www.w3.org/1999/xlink" fill="none" version="1.1"><style>/* cyrillic-ext */
@font-face {
  font-family: 'Comfortaa';
  font-style: normal;
  font-weight: 400;
  font-display: block;
  src: url(http://penpot-frontend:8080/internal/gfonts/font/comfortaa/v47/1Pt_g8LJRfWJmhDAuUsSQamb1W0lwk4S4WjMDr4fIA9c.woff2) format('woff2');
  unicode-range: U+0460-052F, U+1C80-1C8A, U+20B4, U+2DE0-2DFF, U+A640-A69F, U+FE2E-FE2F;
}
/* cyrillic */
@font-face {
  font-family: 'Comfortaa';
  font-style: normal;
  font-weight: 400;
  font-display: block;
  src: url(http://penpot-frontend:8080/internal/gfonts/font/comfortaa/v47/1Pt_g8LJRfWJmhDAuUsSQamb1W0lwk4S4WjMDrcfIA9c.woff2) format('woff2');
  unicode-range: U+0301, U+0400-045F, U+0490-0491, U+04B0-04B1, U+2116;
}
/* greek */
@font-face {
  font-family: 'Comfortaa';
  font-style: normal;
  font-weight: 400;
  font-display: block;
  src: url(http://penpot-frontend:8080/internal/gfonts/font/comfortaa/v47/1Pt_g8LJRfWJmhDAuUsSQamb1W0lwk4S4WjMDrAfIA9c.woff2) format('woff2');
  unicode-range: U+0370-0377, U+037A-037F, U+0384-038A, U+038C, U+038E-03A1, U+03A3-03FF;
}
/* vietnamese */
@font-face {
  font-family: 'Comfortaa';
  font-style: normal;
  font-weight: 400;
  font-display: block;
  src: url(http://penpot-frontend:8080/internal/gfonts/font/comfortaa/v47/1Pt_g8LJRfWJmhDAuUsSQamb1W0lwk4S4WjMDrwfIA9c.woff2) format('woff2');
  unicode-range: U+0102-0103, U+0110-0111, U+0128-0129, U+0168-0169, U+01A0-01A1, U+01AF-01B0, U+0300-0301, U+0303-0304, U+0308-0309, U+0323, U+0329, U+1EA0-1EF9, U+20AB;
}
/* latin-ext */
@font-face {
  font-family: 'Comfortaa';
  font-style: normal;
  font-weight: 400;
  font-display: block;
  src: url(http://penpot-frontend:8080/internal/gfonts/font/comfortaa/v47/1Pt_g8LJRfWJmhDAuUsSQamb1W0lwk4S4WjMDr0fIA9c.woff2) format('woff2');
  unicode-range: U+0100-02BA, U+02BD-02C5, U+02C7-02CC, U+02CE-02D7, U+02DD-02FF, U+0304, U+0308, U+0329, U+1D00-1DBF, U+1E00-1E9F, U+1EF2-1EFF, U+2020, U+20A0-20AB, U+20AD-20C0, U+2113, U+2C60-2C7F, U+A720-A7FF;
}
/* latin */
@font-face {
  font-family: 'Comfortaa';
  font-style: normal;
  font-weight: 400;
  font-display: block;
  src: url(http://penpot-frontend:8080/internal/gfonts/font/comfortaa/v47/1Pt_g8LJRfWJmhDAuUsSQamb1W0lwk4S4WjMDrMfIA.woff2) format('woff2');
  unicode-range: U+0000-00FF, U+0131, U+0152-0153, U+02BB-02BC, U+02C6, U+02DA, U+02DC, U+0304, U+0308, U+0329, U+2000-206F, U+20AC, U+2122, U+2191, U+2193, U+2212, U+2215, U+FEFF, U+FFFD;
}
</style><g id="shape-5a170a0c-63e7-80db-8007-f2983ff958ca"><defs><clipPath id="frame-clip-5a170a0c-63e7-80db-8007-f2983ff958ca-render-1" class="frame-clip frame-clip-def"><rect rx="0" ry="0" x="0" y="0" width="180" height="180" transform="matrix(1.000000, 0.000000, 0.000000, 1.000000, 0.000000, 0.000000)"/></clipPath></defs><g class="frame-container-wrapper"><g class="frame-container-blur"><g class="frame-container-shadows"><g clip-path="url(#frame-clip-5a170a0c-63e7-80db-8007-f2983ff958ca-render-1)" fill="none"><g class="fills" id="fills-5a170a0c-63e7-80db-8007-f2983ff958ca"><rect rx="0" ry="0" x="0" y="0" width="180" height="180" transform="matrix(1.000000, 0.000000, 0.000000, 1.000000, 0.000000, 0.000000)" class="frame-background"/></g><g class="frame-children"><g id="shape-5a170a0c-63e7-80db-8007-f2985fbe48e4"><g class="fills" id="fills-5a170a0c-63e7-80db-8007-f2985fbe48e4"><rect rx="25" ry="25" x="0" y="0" transform="matrix(1.000000, 0.000000, 0.000000, 1.000000, 0.000000, 0.000000)" width="180" height="180" style="fill: rgb(0, 0, 0); fill-opacity: 1;"/></g></g><g id="shape-fa9b6368-c51f-8002-8007-f2c2e8571464" style="opacity: 1;"><g class="fills" id="fills-fa9b6368-c51f-8002-8007-f2c2e8571464"><path d="M83.2149658203125,126.53997802734375L83.2149658203125,126.53997802734375C82.39501953125,126.53997802734375,81.7216796875,126.28668212890625,81.1949462890625,125.780029296875C80.6683349609375,125.280029296875,80.405029296875,124.5966796875,80.405029296875,123.72998046875L80.405029296875,123.72998046875L80.405029296875,102.55999755859375C78.818359375,104.82000732421875,76.728271484375,106.63336181640625,74.135009765625,108C71.54833984375,109.36663818359375,68.64501953125,110.04998779296875,65.4249267578125,110.04998779296875L65.4249267578125,110.04998779296875C61.731689453125,110.04998779296875,58.421630859375,109.17333984375,55.4949951171875,107.41998291015625C52.5616455078125,105.66668701171875,50.2449951171875,103.280029296875,48.544921875,100.260009765625C46.8382568359375,97.23333740234375,45.9849853515625,93.82330322265625,45.9849853515625,90.030029296875L45.9849853515625,90.030029296875C45.9849853515625,86.19000244140625,46.8616943359375,82.760009765625,48.614990234375,79.739990234375C50.3682861328125,76.71331787109375,52.7550048828125,74.32330322265625,55.7750244140625,72.57000732421875C58.8016357421875,70.82330322265625,62.211669921875,69.95001220703125,66.0050048828125,69.95001220703125L66.0050048828125,69.95001220703125C69.7449951171875,69.95001220703125,73.114990234375,70.8133544921875,76.114990234375,72.53997802734375C79.114990234375,74.26666259765625,81.49169921875,76.6300048828125,83.2449951171875,79.6300048828125C84.998291015625,82.6300048828125,85.921630859375,86.00335693359375,86.0150146484375,89.75L86.0150146484375,89.75L86.0150146484375,123.72998046875C86.0150146484375,124.5966796875,85.7515869140625,125.280029296875,85.2249755859375,125.780029296875C84.6982421875,126.28668212890625,84.0283203125,126.53997802734375,83.2149658203125,126.53997802734375ZM66.0050048828125,105.010009765625L66.0050048828125,105.010009765625C68.784912109375,105.010009765625,71.268310546875,104.36334228515625,73.4549560546875,103.07000732421875C75.6416015625,101.77001953125,77.3682861328125,99.97998046875,78.635009765625,97.70001220703125C79.9083251953125,95.41998291015625,80.544921875,92.86334228515625,80.544921875,90.030029296875L80.544921875,90.030029296875C80.544921875,87.1500244140625,79.9083251953125,84.58331298828125,78.635009765625,82.33001708984375C77.3682861328125,80.07666015625,75.6416015625,78.28997802734375,73.4549560546875,76.969970703125C71.268310546875,75.6500244140625,68.784912109375,74.989990234375,66.0050048828125,74.989990234375L66.0050048828125,74.989990234375C63.2650146484375,74.989990234375,60.7916259765625,75.6500244140625,58.5849609375,76.969970703125C56.3782958984375,78.28997802734375,54.6282958984375,80.07666015625,53.3349609375,82.33001708984375C52.034912109375,84.58331298828125,51.385009765625,87.1500244140625,51.385009765625,90.030029296875L51.385009765625,90.030029296875C51.385009765625,92.86334228515625,52.034912109375,95.41998291015625,53.3349609375,97.70001220703125C54.6282958984375,99.97998046875,56.3782958984375,101.77001953125,58.5849609375,103.07000732421875C60.7916259765625,104.36334228515625,63.2650146484375,105.010009765625,66.0050048828125,105.010009765625ZM113.9249267578125,110.04998779296875L113.9249267578125,110.04998779296875C110.1783447265625,110.04998779296875,106.804931640625,109.1866455078125,103.804931640625,107.46002197265625C100.804931640625,105.73333740234375,98.4283447265625,103.3699951171875,96.6749267578125,100.3699951171875C94.9283447265625,97.3699951171875,94.0283203125,93.99664306640625,93.9749755859375,90.25L93.9749755859375,90.25L93.9749755859375,56.27001953125C93.9749755859375,55.4033203125,94.228271484375,54.7166748046875,94.7349853515625,54.21002197265625C95.24169921875,53.71002197265625,95.9249267578125,53.46002197265625,96.784912109375,53.46002197265625L96.784912109375,53.46002197265625C97.60498046875,53.46002197265625,98.2650146484375,53.71002197265625,98.7650146484375,54.21002197265625C99.2716064453125,54.7166748046875,99.5250244140625,55.4033203125,99.5250244140625,56.27001953125L99.5250244140625,56.27001953125L99.5250244140625,77.42999267578125C101.10498046875,75.1766357421875,103.2049560546875,73.36663818359375,105.824951171875,72C108.4383544921875,70.63330078125,111.35498046875,69.95001220703125,114.574951171875,69.95001220703125L114.574951171875,69.95001220703125C118.268310546875,69.95001220703125,121.5782470703125,70.82330322265625,124.5050048828125,72.57000732421875C127.431640625,74.32330322265625,129.748291015625,76.71331787109375,131.4549560546875,79.739990234375C133.16162109375,82.760009765625,134.0150146484375,86.16668701171875,134.0150146484375,89.96002197265625L134.0150146484375,89.96002197265625C134.0150146484375,93.79998779296875,133.1383056640625,97.23333740234375,131.385009765625,100.260009765625C129.631591796875,103.280029296875,127.24169921875,105.66668701171875,124.2149658203125,107.41998291015625C121.1949462890625,109.17333984375,117.7650146484375,110.04998779296875,113.9249267578125,110.04998779296875ZM113.9249267578125,105.010009765625L113.9249267578125,105.010009765625C116.7049560546875,105.010009765625,119.20166015625,104.3499755859375,121.4149169921875,103.030029296875C123.62158203125,101.71002197265625,125.3616943359375,99.92333984375,126.635009765625,97.66998291015625C127.901611328125,95.40997314453125,128.534912109375,92.84002685546875,128.534912109375,89.96002197265625L128.534912109375,89.96002197265625C128.534912109375,87.12664794921875,127.901611328125,84.57000732421875,126.635009765625,82.28997802734375C125.3616943359375,80.010009765625,123.62158203125,78.22332763671875,121.4149169921875,76.92999267578125C119.20166015625,75.63665771484375,116.7049560546875,74.989990234375,113.9249267578125,74.989990234375L113.9249267578125,74.989990234375C111.1849365234375,74.989990234375,108.711669921875,75.63665771484375,106.5050048828125,76.92999267578125C104.29833984375,78.22332763671875,102.5716552734375,80.010009765625,101.324951171875,82.28997802734375C100.0782470703125,84.57000732421875,99.4549560546875,87.12664794921875,99.4549560546875,89.96002197265625L99.4549560546875,89.96002197265625C99.4549560546875,92.84002685546875,100.0782470703125,95.40997314453125,101.324951171875,97.66998291015625C102.5716552734375,99.92333984375,104.29833984375,101.71002197265625,106.5050048828125,103.030029296875C108.711669921875,104.3499755859375,111.1849365234375,105.010009765625,113.9249267578125,105.010009765625Z" style="fill: rgb(255, 255, 255); fill-opacity: 1;"/></g></g><g id="shape-5a170a0c-63e7-80db-8007-f2987bcb506b" style="display: none;"><g transform="matrix(1.000000, 0.000000, 0.000000, 1.000000, 0.000000, 0.000000)" class="text-container" x="44" y="46.5" width="92" height="87" rx="0" ry="0"><defs><pattern patternUnits="objectBoundingBox" width="91.80000305175781" height="80" id="fill-0-render-4-0"><g><rect width="91.80000305175781" height="80" style="fill: rgb(255, 255, 255); fill-opacity: 1;"/></g></pattern></defs><g class="fills" id="fills-5a170a0c-63e7-80db-8007-f2987bcb506b"><text x="44" y="129.6999969482422" dominant-baseline="ideographic" textLength="91.80000305175781" lengthAdjust="spacingAndGlyphs" style="text-transform: none; font-family: Comfortaa; letter-spacing: -5px; font-style: normal; font-weight: 400; white-space: pre; font-size: 72px; text-decoration: none; direction: ltr; fill: rgb(255, 255, 255); fill-opacity: 1;">qb</text></g></g></g></g></g></g></g></g></g></svg>